<svg width="162" height="63" viewBox="0 0 162 63" fill="none" xmlns="http://www.w3.org/2000/svg">
<path d="M12 34V31H9V16H12V13H27V16H30V31H27V34H12ZM15 31H24V16H15V31ZM36 34V13H42V31H54V34H36ZM57 34V13H72V16H75V19H78V28H75V31H72V34H57ZM63 31H69V28H72V19H69V16H63V31ZM81 34V13H102V16H87V22H99V25H87V34H81ZM105 34V19H108V16H111V13H120V16H123V19H126V34H120V28H111V34H105ZM111 25H120V19H117V16H114V19H111V25ZM135 34V31H132V28H129V19H132V16H135V13H150V16H138V19H135V28H138V31H144V25H141V22H150V34H135ZM18 49.25V40.5H28.5V42.25H30.25V49.25H26.75V42.25H25V49.25H21.5V42.25H19.75V49.25H18ZM33.75 49.25V47.5H32V42.25H33.75V40.5H42.5V42.25H44.25V45.75H35.5V47.5H42.5V49.25H33.75ZM35.5 44H40.75V42.25H35.5V44ZM46 49.25V47.5H54.75V45.75H47.75V44H46V42.25H47.75V40.5H56.5V42.25H49.5V44H56.5V45.75H58.25V47.5H56.5V49.25H46ZM60 49.25V47.5H68.75V45.75H61.75V44H60V42.25H61.75V40.5H70.5V42.25H63.5V44H70.5V45.75H72.25V47.5H70.5V49.25H60ZM75.75 49.25V47.5H74V42.25H75.75V40.5H84.5V42.25H86.25V45.75H77.5V47.5H84.5V49.25H75.75ZM77.5 44H82.75V42.25H77.5V44ZM88 49.25V40.5H98.5V42.25H100.25V49.25H96.75V42.25H91.5V49.25H88ZM103.75 51V49.25H110.75V47.5H103.75V45.75H102V42.25H103.75V40.5H114.25V49.25H112.5V51H103.75ZM105.5 45.75H110.75V42.25H105.5V45.75ZM117.75 49.25V47.5H116V42.25H117.75V40.5H126.5V42.25H128.25V45.75H119.5V47.5H126.5V49.25H117.75ZM119.5 44H124.75V42.25H119.5V44ZM135.25 42.25H137V44H135.25V49.25H131.75V40.5H135.25V42.25ZM142.25 40.5V42.25H137V40.5H142.25Z" fill="black"/>
</svg>
