<svg width="120" height="120" viewBox="0 0 120 120" fill="none" xmlns="http://www.w3.org/2000/svg">
<rect width="120" height="120" fill="#D9D9D9"/>
<path fill-rule="evenodd" clip-rule="evenodd" d="M72 46H48C46.8954 46 46 46.8954 46 48V64.12L55.4546 61.9139C56.3486 61.7053 57.2635 61.6 58.1814 61.6H61.8185C62.7364 61.6 63.6513 61.7053 64.5453 61.9139L74 64.12V48C74 46.8954 73.1046 46 72 46ZM48 44C45.7909 44 44 45.7909 44 48V72C44 74.2091 45.7909 76 48 76H72C74.2091 76 76 74.2091 76 72V48C76 45.7909 74.2091 44 72 44H48ZM52.7272 55.6364C54.3339 55.6364 55.6363 54.3339 55.6363 52.7273C55.6363 51.1206 54.3339 49.8182 52.7272 49.8182C51.1206 49.8182 49.8181 51.1206 49.8181 52.7273C49.8181 54.3339 51.1206 55.6364 52.7272 55.6364Z" fill="#888888"/>
</svg>
